<svg width="188" height="48" viewBox="0 0 188 48" fill="none" xmlns="http://www.w3.org/2000/svg">
<g filter="url(#filter0_d_1_17)">
<g filter="url(#filter1_b_1_17)">
<rect x="4" width="180" height="40" rx="20" fill="#8B8B8B" fill-opacity="0.3"/>
<rect x="4.5" y="0.5" width="179" height="39" rx="19.5" stroke="black" stroke-opacity="0.22"/>
</g>
<path d="M32.8864 21V19.5398L38.6932 11.392H32.875V9.36364H41.7841V10.8239L35.9716 18.9716H41.7955V21H32.8864ZM43.6832 21V9.36364H51.5241V11.392H46.1435V14.1648H51.1207V16.1932H46.1435V18.9716H51.5469V21H43.6832ZM59.7926 12.7102C59.7472 12.2519 59.5521 11.8958 59.2074 11.642C58.8627 11.3883 58.3949 11.2614 57.804 11.2614C57.4025 11.2614 57.0634 11.3182 56.7869 11.4318C56.5104 11.5417 56.2983 11.6951 56.1506 11.892C56.0066 12.089 55.9347 12.3125 55.9347 12.5625C55.9271 12.7708 55.9706 12.9527 56.0653 13.108C56.1638 13.2633 56.2983 13.3977 56.4688 13.5114C56.6392 13.6212 56.8362 13.7178 57.0597 13.8011C57.2831 13.8807 57.5218 13.9489 57.7756 14.0057L58.821 14.2557C59.3286 14.3693 59.7945 14.5208 60.2188 14.7102C60.643 14.8996 61.0104 15.1326 61.321 15.4091C61.6316 15.6856 61.8722 16.0114 62.0426 16.3864C62.2169 16.7614 62.3059 17.1913 62.3097 17.6761C62.3059 18.3883 62.1241 19.0057 61.7642 19.5284C61.4081 20.0473 60.893 20.4508 60.2188 20.7386C59.5483 21.0227 58.7396 21.1648 57.7926 21.1648C56.8532 21.1648 56.035 21.0208 55.3381 20.733C54.6449 20.4451 54.1032 20.0189 53.7131 19.4545C53.3267 18.8864 53.1241 18.1837 53.1051 17.3466H55.4858C55.5123 17.7367 55.6241 18.0625 55.821 18.3239C56.0218 18.5814 56.2888 18.7765 56.6222 18.9091C56.9593 19.0379 57.34 19.1023 57.7642 19.1023C58.1809 19.1023 58.5426 19.0417 58.8494 18.9205C59.16 18.7992 59.4006 18.6307 59.571 18.4148C59.7415 18.1989 59.8267 17.9508 59.8267 17.6705C59.8267 17.4091 59.7491 17.1894 59.5938 17.0114C59.4422 16.8333 59.2188 16.6818 58.9233 16.5568C58.6316 16.4318 58.2737 16.3182 57.8494 16.2159L56.5824 15.8977C55.6013 15.6591 54.8267 15.286 54.2585 14.7784C53.6903 14.2708 53.4081 13.5871 53.4119 12.7273C53.4081 12.0227 53.5956 11.4072 53.9744 10.8807C54.357 10.3542 54.8816 9.94318 55.5483 9.64773C56.215 9.35227 56.9725 9.20455 57.821 9.20455C58.6847 9.20455 59.4384 9.35227 60.0824 9.64773C60.7301 9.94318 61.2339 10.3542 61.5938 10.8807C61.9536 11.4072 62.1392 12.017 62.1506 12.7102H59.7926ZM63.5213 11.392V9.36364H73.0781V11.392H69.5156V21H67.0838V11.392H63.5213ZM74.652 21V9.36364H77.1122V18.9716H82.1009V21H74.652ZM86.0327 21H83.3963L87.4134 9.36364H90.5838L94.5952 21H91.9588L89.044 12.0227H88.9531L86.0327 21ZM85.8679 16.4261H92.0952V18.3466H85.8679V16.4261ZM95.9957 21V9.36364H100.587C101.465 9.36364 102.215 9.52083 102.837 9.83523C103.462 10.1458 103.937 10.5871 104.263 11.1591C104.592 11.7273 104.757 12.3958 104.757 13.1648C104.757 13.9375 104.59 14.6023 104.257 15.1591C103.924 15.7121 103.441 16.1364 102.808 16.4318C102.179 16.7273 101.418 16.875 100.524 16.875H97.4503V14.8977H100.126C100.596 14.8977 100.986 14.8333 101.297 14.7045C101.607 14.5758 101.839 14.3826 101.99 14.125C102.145 13.8674 102.223 13.5473 102.223 13.1648C102.223 12.7784 102.145 12.4527 101.99 12.1875C101.839 11.9223 101.606 11.7216 101.291 11.5852C100.981 11.4451 100.589 11.375 100.115 11.375H98.456V21H95.9957ZM102.28 15.7045L105.172 21H102.456L99.6264 15.7045H102.28ZM106.496 21V9.36364H108.956V14.4943H109.109L113.297 9.36364H116.246L111.928 14.5739L116.297 21H113.354L110.166 16.2159L108.956 17.6932V21H106.496Z" fill="#7D7D7D"/>
<path d="M34.4773 33H32.7727V27.1818H34.5795C35.1345 27.1818 35.6089 27.2973 36.0028 27.5284C36.3987 27.7595 36.7017 28.0909 36.9119 28.5227C37.1222 28.9545 37.2273 29.4725 37.2273 30.0767C37.2273 30.6866 37.1193 31.2102 36.9034 31.6477C36.6894 32.0833 36.3769 32.4176 35.9659 32.6506C35.5568 32.8835 35.0606 33 34.4773 33ZM33.304 32.5227H34.446C34.946 32.5227 35.3646 32.4242 35.7017 32.2273C36.0388 32.0303 36.2917 31.7491 36.4602 31.3835C36.6288 31.018 36.7131 30.5824 36.7131 30.0767C36.7112 29.5748 36.6278 29.143 36.4631 28.7812C36.3002 28.4195 36.0578 28.142 35.7358 27.9489C35.4157 27.7557 35.0199 27.6591 34.5483 27.6591H33.304V32.5227ZM38.5149 33V27.1818H41.8899V27.6591H39.0462V29.8494H41.7109V30.3267H39.0462V32.5227H41.9467V33H38.5149ZM46.424 28.6364C46.3918 28.3125 46.2488 28.0549 45.995 27.8636C45.7412 27.6723 45.4221 27.5767 45.0376 27.5767C44.7668 27.5767 44.5282 27.6231 44.3217 27.7159C44.1172 27.8087 43.9562 27.9375 43.8388 28.1023C43.7232 28.2652 43.6655 28.4508 43.6655 28.6591C43.6655 28.8125 43.6986 28.947 43.7649 29.0625C43.8312 29.178 43.9202 29.2775 44.032 29.3608C44.1456 29.4422 44.2706 29.5123 44.407 29.571C44.5452 29.6297 44.6844 29.679 44.8246 29.7188L45.4382 29.8949C45.6238 29.946 45.8094 30.0114 45.995 30.0909C46.1806 30.1705 46.3501 30.2708 46.5036 30.392C46.6589 30.5114 46.7829 30.6581 46.8757 30.8324C46.9704 31.0047 47.0178 31.2121 47.0178 31.4545C47.0178 31.7652 46.9373 32.0445 46.7763 32.2926C46.6153 32.5407 46.3842 32.7377 46.0831 32.8835C45.782 33.0275 45.4212 33.0994 45.0007 33.0994C44.6049 33.0994 44.2611 33.0341 43.9695 32.9034C43.6778 32.7708 43.4486 32.5881 43.282 32.3551C43.1153 32.1222 43.0215 31.8523 43.0007 31.5455H43.5462C43.5651 31.7746 43.6409 31.9687 43.7734 32.1278C43.906 32.2869 44.0784 32.4081 44.2905 32.4915C44.5026 32.5729 44.7393 32.6136 45.0007 32.6136C45.2905 32.6136 45.5481 32.5653 45.7734 32.4688C46.0007 32.3703 46.1787 32.2339 46.3075 32.0597C46.4382 31.8835 46.5036 31.679 46.5036 31.446C46.5036 31.2491 46.4524 31.0843 46.3501 30.9517C46.2479 30.8172 46.1049 30.7045 45.9212 30.6136C45.7393 30.5227 45.5282 30.4422 45.2876 30.3722L44.5916 30.1676C44.1352 30.0312 43.781 29.8428 43.5291 29.6023C43.2772 29.3617 43.1513 29.0549 43.1513 28.6818C43.1513 28.3693 43.2346 28.0947 43.4013 27.858C43.5698 27.6193 43.7971 27.4337 44.0831 27.3011C44.371 27.1667 44.6939 27.0994 45.0518 27.0994C45.4136 27.0994 45.7337 27.1657 46.0121 27.2983C46.2905 27.4309 46.5111 27.6136 46.674 27.8466C46.8388 28.0777 46.9268 28.3409 46.9382 28.6364H46.424ZM48.8274 27.1818V33H48.2962V27.1818H48.8274ZM54.3999 29C54.3468 28.8068 54.2692 28.6259 54.1669 28.4574C54.0646 28.2869 53.9377 28.1383 53.7862 28.0114C53.6366 27.8826 53.4633 27.7822 53.2663 27.7102C53.0713 27.6383 52.8535 27.6023 52.6129 27.6023C52.2341 27.6023 51.8951 27.7008 51.5959 27.8977C51.2966 28.0947 51.0599 28.3788 50.8857 28.75C50.7133 29.1212 50.6271 29.5682 50.6271 30.0909C50.6271 30.6117 50.7143 31.0578 50.8885 31.429C51.0627 31.8002 51.3014 32.0852 51.6044 32.2841C51.9093 32.4811 52.2578 32.5795 52.6499 32.5795C53.0078 32.5795 53.3241 32.5 53.5987 32.3409C53.8733 32.1818 54.0874 31.9545 54.2408 31.6591C54.3961 31.3636 54.4718 31.0123 54.468 30.6051L54.6385 30.6591H52.7749V30.1818H54.9851V30.6591C54.9851 31.1553 54.8847 31.5843 54.6839 31.946C54.4832 32.3078 54.2076 32.5871 53.8572 32.7841C53.5069 32.9811 53.1044 33.0795 52.6499 33.0795C52.1423 33.0795 51.6982 32.9574 51.3175 32.7131C50.9368 32.4669 50.6404 32.1203 50.4283 31.6733C50.218 31.2244 50.1129 30.697 50.1129 30.0909C50.1129 29.6345 50.1735 29.2225 50.2947 28.8551C50.416 28.4877 50.5874 28.1733 50.8089 27.9119C51.0324 27.6506 51.2966 27.4508 51.6016 27.3125C51.9065 27.1723 52.2436 27.1023 52.6129 27.1023C52.9311 27.1023 53.2218 27.1525 53.4851 27.2528C53.7502 27.3532 53.9832 27.4915 54.1839 27.6676C54.3866 27.8419 54.5523 28.0436 54.6811 28.2727C54.8118 28.5 54.8999 28.7424 54.9453 29H54.3999ZM60.8352 27.1818V33H60.3182L56.8807 28.1278H56.8352V33H56.304V27.1818H56.8182L60.267 32.0597H60.3125V27.1818H60.8352ZM62.3821 33V27.1818H65.7571V27.6591H62.9134V29.8494H65.5781V30.3267H62.9134V32.5227H65.8139V33H62.3821ZM68.8366 33H67.1321V27.1818H68.9389C69.4938 27.1818 69.9683 27.2973 70.3622 27.5284C70.758 27.7595 71.0611 28.0909 71.2713 28.5227C71.4815 28.9545 71.5866 29.4725 71.5866 30.0767C71.5866 30.6866 71.4787 31.2102 71.2628 31.6477C71.0488 32.0833 70.7363 32.4176 70.3253 32.6506C69.9162 32.8835 69.42 33 68.8366 33ZM67.6634 32.5227H68.8054C69.3054 32.5227 69.724 32.4242 70.0611 32.2273C70.3982 32.0303 70.651 31.7491 70.8196 31.3835C70.9882 31.018 71.0724 30.5824 71.0724 30.0767C71.0705 29.5748 70.9872 29.143 70.8224 28.7812C70.6596 28.4195 70.4171 28.142 70.0952 27.9489C69.7751 27.7557 69.3793 27.6591 68.9077 27.6591H67.6634V32.5227ZM75.1243 33V27.1818H77.0874C77.4661 27.1818 77.7815 27.2481 78.0334 27.3807C78.2872 27.5133 78.4775 27.6941 78.6044 27.9233C78.7313 28.1525 78.7947 28.4129 78.7947 28.7045C78.7947 28.947 78.754 29.1544 78.6726 29.3267C78.5911 29.4991 78.4804 29.6383 78.3402 29.7443C78.2 29.8504 78.0438 29.9271 77.8714 29.9744V30.0199C78.0589 30.0331 78.2408 30.0994 78.4169 30.2188C78.593 30.3362 78.7379 30.5009 78.8516 30.7131C78.9652 30.9252 79.022 31.179 79.022 31.4744C79.022 31.768 78.9567 32.0303 78.826 32.2614C78.6953 32.4905 78.4946 32.6714 78.2237 32.804C77.9548 32.9347 77.612 33 77.1953 33H75.1243ZM75.6555 32.5227H77.1953C77.6442 32.5227 77.9756 32.4233 78.1896 32.2244C78.4055 32.0256 78.5135 31.7756 78.5135 31.4744C78.5135 31.2528 78.4595 31.0521 78.3516 30.8722C78.2455 30.6903 78.0949 30.5464 77.8999 30.4403C77.7067 30.3343 77.4794 30.2812 77.218 30.2812H75.6555V32.5227ZM75.6555 29.8097H77.1357C77.3648 29.8097 77.5656 29.7623 77.7379 29.6676C77.9103 29.5729 78.0447 29.4422 78.1413 29.2756C78.2379 29.1089 78.2862 28.9186 78.2862 28.7045C78.2862 28.3958 78.1858 28.1449 77.9851 27.9517C77.7843 27.7566 77.4851 27.6591 77.0874 27.6591H75.6555V29.8097ZM79.7585 27.1818H80.3722L82.0966 29.9432H82.1477L83.8722 27.1818H84.4858L82.3864 30.4801V33H81.858V30.4801L79.7585 27.1818ZM89.4382 33H87.7337V27.1818H89.5405C90.0954 27.1818 90.5698 27.2973 90.9638 27.5284C91.3596 27.7595 91.6626 28.0909 91.8729 28.5227C92.0831 28.9545 92.1882 29.4725 92.1882 30.0767C92.1882 30.6866 92.0803 31.2102 91.8643 31.6477C91.6503 32.0833 91.3378 32.4176 90.9268 32.6506C90.5178 32.8835 90.0215 33 89.4382 33ZM88.2649 32.5227H89.407C89.907 32.5227 90.3255 32.4242 90.6626 32.2273C90.9998 32.0303 91.2526 31.7491 91.4212 31.3835C91.5897 31.018 91.674 30.5824 91.674 30.0767C91.6721 29.5748 91.5888 29.143 91.424 28.7812C91.2611 28.4195 91.0187 28.142 90.6967 27.9489C90.3767 27.7557 89.9808 27.6591 89.5092 27.6591H88.2649V32.5227ZM93.4759 33V27.1818H96.8509V27.6591H94.0071V29.8494H96.6719V30.3267H94.0071V32.5227H96.9077V33H93.4759ZM98.2259 33V27.1818H101.601V27.6591H98.7571V29.8494H101.422V30.3267H98.7571V32.5227H101.658V33H98.2259ZM102.976 33V27.1818H104.854C105.267 27.1818 105.611 27.2614 105.888 27.4205C106.166 27.5777 106.375 27.7917 106.516 28.0625C106.658 28.3333 106.729 28.6383 106.729 28.9773C106.729 29.3163 106.659 29.6222 106.518 29.8949C106.378 30.1657 106.17 30.3807 105.893 30.5398C105.617 30.697 105.273 30.7756 104.862 30.7756H103.385V30.2983H104.848C105.153 30.2983 105.406 30.2415 105.607 30.1278C105.807 30.0123 105.957 29.8551 106.055 29.6562C106.156 29.4574 106.206 29.2311 106.206 28.9773C106.206 28.7235 106.156 28.4972 106.055 28.2983C105.957 28.0994 105.806 27.9432 105.604 27.8295C105.403 27.7159 105.148 27.6591 104.839 27.6591H103.507V33H102.976ZM107.391 33H106.834L108.95 27.1818H109.518L111.635 33H111.078L109.254 27.8722H109.214L107.391 33ZM107.791 30.7699H110.678V31.2472H107.791V30.7699ZM112.632 33V27.1818H113.163V30.3153H113.214L116.055 27.1818H116.754L114.268 29.8722L116.743 33H116.095L113.939 30.2415L113.163 31.1108V33H112.632ZM120.007 33V27.1818H120.538V30.3153H120.589L123.43 27.1818H124.129L121.643 29.8722L124.118 33H123.47L121.314 30.2415L120.538 31.1108V33H120.007ZM125.141 33H124.584L126.7 27.1818H127.268L129.385 33H128.828L127.004 27.8722H126.964L125.141 33ZM125.541 30.7699H128.428V31.2472H125.541V30.7699ZM134.913 27.1818V33H134.396L130.959 28.1278H130.913V33H130.382V27.1818H130.896L134.345 32.0597H134.391V27.1818H134.913ZM141.23 30.0909C141.23 30.697 141.122 31.2244 140.906 31.6733C140.69 32.1203 140.393 32.4669 140.014 32.7131C139.637 32.9574 139.204 33.0795 138.713 33.0795C138.223 33.0795 137.788 32.9574 137.409 32.7131C137.032 32.4669 136.736 32.1203 136.52 31.6733C136.306 31.2244 136.199 30.697 136.199 30.0909C136.199 29.4848 136.306 28.9583 136.52 28.5114C136.736 28.0625 137.033 27.7159 137.412 27.4716C137.791 27.2254 138.224 27.1023 138.713 27.1023C139.204 27.1023 139.637 27.2254 140.014 27.4716C140.393 27.7159 140.69 28.0625 140.906 28.5114C141.122 28.9583 141.23 29.4848 141.23 30.0909ZM140.713 30.0909C140.713 29.5701 140.626 29.1241 140.452 28.7528C140.277 28.3797 140.04 28.0947 139.739 27.8977C139.438 27.7008 139.096 27.6023 138.713 27.6023C138.332 27.6023 137.991 27.7008 137.69 27.8977C137.389 28.0947 137.151 28.3788 136.974 28.75C136.8 29.1212 136.713 29.5682 136.713 30.0909C136.713 30.6117 136.8 31.0578 136.974 31.429C137.149 31.8002 137.386 32.0852 137.688 32.2841C137.989 32.4811 138.33 32.5795 138.713 32.5795C139.096 32.5795 139.438 32.4811 139.739 32.2841C140.042 32.0871 140.28 31.803 140.455 31.4318C140.629 31.0587 140.715 30.6117 140.713 30.0909ZM144.719 27.1818H145.251V31.3778C145.249 31.7566 145.181 32.0729 145.046 32.3267C144.912 32.5786 144.726 32.767 144.489 32.892C144.253 33.017 143.981 33.0795 143.674 33.0795C143.373 33.0795 143.104 33.0237 142.867 32.9119C142.63 32.8002 142.444 32.643 142.308 32.4403C142.173 32.2377 142.106 32 142.106 31.7273H142.629C142.629 31.8996 142.674 32.0521 142.765 32.1847C142.856 32.3153 142.98 32.4176 143.137 32.4915C143.296 32.5653 143.475 32.6023 143.674 32.6023C143.88 32.6023 144.061 32.5587 144.217 32.4716C144.374 32.3845 144.497 32.2509 144.586 32.071C144.675 31.8892 144.719 31.6581 144.719 31.3778V27.1818ZM147.327 27.1818V33H146.796V27.1818H147.327ZM148.329 27.1818H148.942L150.667 29.9432H150.718L152.442 27.1818H153.056L150.957 30.4801V33H150.428V30.4801L148.329 27.1818ZM153.469 33H152.912L155.028 27.1818H155.597L157.713 33H157.156L155.332 27.8722H155.293L153.469 33ZM153.869 30.7699H156.756V31.2472H153.869V30.7699ZM164.278 33.0909L161.358 30.1705C161.125 29.9375 160.97 29.6667 160.892 29.358C160.816 29.0492 160.817 28.7424 160.895 28.4375C160.973 28.1307 161.127 27.8636 161.358 27.6364C161.595 27.4034 161.865 27.2491 162.168 27.1733C162.473 27.0956 162.777 27.0956 163.08 27.1733C163.384 27.2509 163.655 27.4053 163.892 27.6364L164.278 28.0114L164.665 27.6364C164.903 27.4053 165.174 27.2509 165.477 27.1733C165.78 27.0956 166.083 27.0956 166.386 27.1733C166.691 27.2491 166.962 27.4034 167.199 27.6364C167.43 27.8636 167.584 28.1307 167.662 28.4375C167.74 28.7424 167.74 29.0492 167.662 29.358C167.586 29.6667 167.432 29.9375 167.199 30.1705L164.278 33.0909Z" fill="#7D7D7D"/>
<circle cx="19.5" cy="20.5" r="4.5" fill="#7D7D7D"/>
</g>
<defs>
<filter id="filter0_d_1_17" x="0" y="0" width="188" height="48" filterUnits="userSpaceOnUse" color-interpolation-filters="sRGB">
<feFlood flood-opacity="0" result="BackgroundImageFix"/>
<feColorMatrix in="SourceAlpha" type="matrix" values="0 0 0 0 0 0 0 0 0 0 0 0 0 0 0 0 0 0 127 0" result="hardAlpha"/>
<feOffset dy="4"/>
<feGaussianBlur stdDeviation="2"/>
<feComposite in2="hardAlpha" operator="out"/>
<feColorMatrix type="matrix" values="0 0 0 0 0 0 0 0 0 0 0 0 0 0 0 0 0 0 0.25 0"/>
<feBlend mode="normal" in2="BackgroundImageFix" result="effect1_dropShadow_1_17"/>
<feBlend mode="normal" in="SourceGraphic" in2="effect1_dropShadow_1_17" result="shape"/>
</filter>
<filter id="filter1_b_1_17" x="-16" y="-20" width="220" height="80" filterUnits="userSpaceOnUse" color-interpolation-filters="sRGB">
<feFlood flood-opacity="0" result="BackgroundImageFix"/>
<feGaussianBlur in="BackgroundImageFix" stdDeviation="10"/>
<feComposite in2="SourceAlpha" operator="in" result="effect1_backgroundBlur_1_17"/>
<feBlend mode="normal" in="SourceGraphic" in2="effect1_backgroundBlur_1_17" result="shape"/>
</filter>
</defs>
</svg>
